<svg xmlns="http://www.w3.org/2000/svg" viewBox="23 29.5 154 140.999" width="266.668" height="266.668">
  <g>
    <path fill="black" d="M175.006 30.04a4 4 0 0 0-3.993-.011L126.42 55.563 75.246 29.924c-.05-.025-.103-.042-.154-.065q-.082-.037-.165-.07a4 4 0 0 0-.643-.2l-.092-.014a4 4 0 0 0-.661-.067c-.026 0-.051-.008-.077-.008l-.039.004a4 4 0 0 0-.695.07l-.158.034c-.221.051-.44.114-.652.202l-.061.03c-.13.057-.258.117-.383.189l-46.454 26.6A4 4 0 0 0 23 60.1v106.4a4 4 0 0 0 5.987 3.471l44.593-25.534 51.174 25.639c.032.016.068.021.101.036.193.09.395.159.602.218.075.021.146.052.222.069q.427.097.867.1c.239 0 .476-.029.711-.072q.424-.074.822-.235c.034-.014.065-.033.099-.048.12-.054.239-.107.355-.173l46.454-26.6A4 4 0 0 0 177 139.9V33.5a4 4 0 0 0-1.994-3.46m-97.552 9.938 45.092 22.592v97.452L77.454 137.43zM31 62.419 69.454 40.4v97.181L31 159.6zm138 75.162L130.546 159.6V62.419L169 40.4z"></path>
  </g>
</svg>
