<?xml version="1.0" encoding="utf-8"?>
<!-- Svg Vector Icons : http://www.onlinewebfonts.com/icon -->
<!DOCTYPE svg PUBLIC "-//W3C//DTD SVG 1.1//EN" "http://www.w3.org/Graphics/SVG/1.1/DTD/svg11.dtd">
<svg version="1.1" xmlns="http://www.w3.org/2000/svg" xmlns:xlink="http://www.w3.org/1999/xlink" x="0px" y="0px" viewBox="0 0 256 256" enable-background="new 0 0 256 256" xml:space="preserve">
<metadata> Svg Vector Icons : http://www.onlinewebfonts.com/icon </metadata>
<g><g><path fill="#000000" d="M236,96.1v39.1l8.2,8.2l-17.1,17.8L209.8,144l11.9-10.8v-30.9c-50.4,20.8-66.6,27.3-77.7,32.3c-11.2,5.1-19.2,5-30.3,0.8c-11.1-4.2-63.9-23.5-90.1-36C6,91,4.9,85.7,23.8,78.6c24.7-9.4,65.5-24.4,87.1-32.6c12.8-5.2,19.6-8,31.3-2.1c21,8.7,68.9,26.7,92.8,36.5C255.8,89.5,241.8,92.5,236,96.1L236,96.1L236,96.1z M146.3,150.1c12.2-5,28.6-13.4,46.6-21v61.7c0,0-23.2,24.7-63.9,24.7c-43.9,0-67.6-24.7-67.6-24.7v-57.6c13.8,5.6,29.4,10.5,48.2,16.9C121.1,154.2,135.8,155.6,146.3,150.1L146.3,150.1L146.3,150.1z"/></g></g>
</svg>